<svg xmlns="http://www.w3.org/2000/svg" xmlns:xlink="http://www.w3.org/1999/xlink" contentStyleType="text/css" data-diagram-type="DESCRIPTION" height="848px" preserveAspectRatio="none" style="width:1295px;height:848px;background:#FFFFFF;" version="1.1" viewBox="0 0 1295 848" width="1295px" zoomAndPan="magnify"><title>CI/CD Pipeline (workflows + manual triggers)</title><defs/><g><g class="title" data-source-line="1"><text fill="#000000" font-family="Arial" font-size="14" font-weight="bold" lengthAdjust="spacing" textLength="356.9521" x="462.2451" y="22.9951">CI/CD Pipeline (workflows + manual triggers)</text></g><!--entity COMP--><g class="entity" data-entity="COMP" data-source-line="14" data-uid="ent0002" id="entity_COMP"><rect fill="#F1F1F1" height="68.8906" rx="4" ry="4" style="stroke:#181818;stroke-width:0.5;" width="239.1191" x="873.35" y="44.2969"/><text fill="#000000" font-family="Arial" font-size="14" lengthAdjust="spacing" textLength="137.3271" x="883.35" y="67.292">Component Testing</text><text fill="#000000" font-family="Arial" font-size="14" lengthAdjust="spacing" textLength="219.1191" x="883.35" y="83.5889">On The React-materials Library</text><text fill="#000000" font-family="Arial" font-size="14" lengthAdjust="spacing" textLength="194.8311" x="883.35" y="99.8857">[push/PR; supports manual]</text></g><!--entity SYS_LOCAL--><g class="entity" data-entity="SYS_LOCAL" data-source-line="15" data-uid="ent0003" id="entity_SYS_LOCAL"><rect fill="#F1F1F1" height="68.8906" rx="4" ry="4" style="stroke:#181818;stroke-width:0.5;" width="214.8311" x="885.49" y="190.1869"/><text fill="#000000" font-family="Arial" font-size="14" lengthAdjust="spacing" textLength="108.2539" x="895.49" y="213.182">System Testing</text><text fill="#000000" font-family="Arial" font-size="14" lengthAdjust="spacing" textLength="168.8477" x="895.49" y="229.4789">On The Web Application</text><text fill="#000000" font-family="Arial" font-size="14" lengthAdjust="spacing" textLength="194.8311" x="895.49" y="245.7757">[push/PR; supports manual]</text></g><!--entity SYS_REUSABLE--><g class="entity" data-entity="SYS_REUSABLE" data-source-line="16" data-uid="ent0004" id="entity_SYS_REUSABLE"><rect fill="#F1F1F1" height="85.1875" rx="4" ry="4" style="stroke:#181818;stroke-width:0.5;" width="194.3643" x="895.73" y="757.4469"/><text fill="#000000" font-family="Arial" font-size="14" lengthAdjust="spacing" textLength="125.8223" x="905.73" y="780.442">Run System Tests</text><text fill="#000000" font-family="Arial" font-size="14" lengthAdjust="spacing" textLength="168.8477" x="905.73" y="796.7389">On The Web Application</text><text fill="#000000" font-family="Arial" font-size="14" lengthAdjust="spacing" textLength="92.4492" x="905.73" y="813.0357">With Cypress</text><text fill="#000000" font-family="Arial" font-size="14" lengthAdjust="spacing" textLength="174.3643" x="905.73" y="829.3326">[reusable: workflow_call]</text></g><!--entity BUILD--><g class="entity" data-entity="BUILD" data-source-line="17" data-uid="ent0005" id="entity_BUILD"><rect fill="#F1F1F1" height="52.5938" rx="4" ry="4" style="stroke:#181818;stroke-width:0.5;" width="251.2324" x="512.29" y="336.0769"/><text fill="#000000" font-family="Arial" font-size="14" lengthAdjust="spacing" textLength="153.6104" x="522.29" y="359.072">Build Web Application</text><text fill="#000000" font-family="Arial" font-size="14" lengthAdjust="spacing" textLength="231.2324" x="522.29" y="375.3689">[workflow_run; supports manual]</text></g><!--entity DEPLOY--><g class="entity" data-entity="DEPLOY" data-source-line="18" data-uid="ent0006" id="entity_DEPLOY"><rect fill="#F1F1F1" height="68.8906" rx="4" ry="4" style="stroke:#181818;stroke-width:0.5;" width="158.2021" x="558.81" y="465.6669"/><text fill="#000000" font-family="Arial" font-size="14" lengthAdjust="spacing" textLength="112.1641" x="568.81" y="488.662">Deploy WebApp</text><text fill="#000000" font-family="Arial" font-size="14" lengthAdjust="spacing" textLength="113.2852" x="568.81" y="504.9589">to GitHub Pages</text><text fill="#000000" font-family="Arial" font-size="14" lengthAdjust="spacing" textLength="138.2021" x="568.81" y="521.2557">[workflow_run only]</text></g><!--entity SYS_DEPLOYED--><g class="entity" data-entity="SYS_DEPLOYED" data-source-line="19" data-uid="ent0007" id="entity_SYS_DEPLOYED"><rect fill="#F1F1F1" height="68.8906" rx="4" ry="4" style="stroke:#181818;stroke-width:0.5;" width="259.8184" x="7" y="611.5569"/><text fill="#000000" font-family="Arial" font-size="14" lengthAdjust="spacing" textLength="108.2539" x="17" y="634.552">System Testing</text><text fill="#000000" font-family="Arial" font-size="14" lengthAdjust="spacing" textLength="239.8184" x="17" y="650.8489">On The Deployed Web Application</text><text fill="#000000" font-family="Arial" font-size="14" lengthAdjust="spacing" textLength="231.2324" x="17" y="667.1457">[workflow_run; supports manual]</text></g><g class="entity" data-entity="GMN14" data-source-line="33" data-uid="ent0015" id="entity_GMN14"><path d="M1147.37,58.6069 L1147.37,74.7369 L1112.88,78.7369 L1147.37,82.7369 L1147.37,98.8725 A0,0 0 0 0 1147.37,98.8725 L1288.4423,98.8725 A0,0 0 0 0 1288.4423,98.8725 L1288.4423,68.6069 L1278.4423,58.6069 L1147.37,58.6069 A0,0 0 0 0 1147.37,58.6069" fill="#FFFFE6" style="stroke:#CCCC99;stroke-width:0.5;"/><path d="M1278.4423,58.6069 L1278.4423,68.6069 L1288.4423,68.6069 L1278.4423,58.6069" fill="#FFFFE6" style="stroke:#CCCC99;stroke-width:0.5;"/><text fill="#000000" font-family="Arial" font-size="13" lengthAdjust="spacing" textLength="101.0991" x="1153.37" y="75.6738">manual trigger:</text><text fill="#000000" font-family="Arial" font-size="13" lengthAdjust="spacing" textLength="120.0723" x="1153.37" y="90.8066">workflow_dispatch</text></g><g class="entity" data-entity="GMN17" data-source-line="38" data-uid="ent0018" id="entity_GMN17"><path d="M1135.37,204.4969 L1135.37,220.6269 L1100.66,224.6269 L1135.37,228.6269 L1135.37,244.7625 A0,0 0 0 0 1135.37,244.7625 L1276.4423,244.7625 A0,0 0 0 0 1276.4423,244.7625 L1276.4423,214.4969 L1266.4423,204.4969 L1135.37,204.4969 A0,0 0 0 0 1135.37,204.4969" fill="#FFFFE6" style="stroke:#CCCC99;stroke-width:0.5;"/><path d="M1266.4423,204.4969 L1266.4423,214.4969 L1276.4423,214.4969 L1266.4423,204.4969" fill="#FFFFE6" style="stroke:#CCCC99;stroke-width:0.5;"/><text fill="#000000" font-family="Arial" font-size="13" lengthAdjust="spacing" textLength="101.0991" x="1141.37" y="221.5638">manual trigger:</text><text fill="#000000" font-family="Arial" font-size="13" lengthAdjust="spacing" textLength="120.0723" x="1141.37" y="236.6966">workflow_dispatch</text></g><g class="entity" data-entity="GMN20" data-source-line="43" data-uid="ent0021" id="entity_GMN20"><path d="M798.37,342.2369 L798.37,358.3669 L763.79,362.3669 L798.37,366.3669 L798.37,382.5025 A0,0 0 0 0 798.37,382.5025 L939.4423,382.5025 A0,0 0 0 0 939.4423,382.5025 L939.4423,352.2369 L929.4423,342.2369 L798.37,342.2369 A0,0 0 0 0 798.37,342.2369" fill="#FFFFE6" style="stroke:#CCCC99;stroke-width:0.5;"/><path d="M929.4423,342.2369 L929.4423,352.2369 L939.4423,352.2369 L929.4423,342.2369" fill="#FFFFE6" style="stroke:#CCCC99;stroke-width:0.5;"/><text fill="#000000" font-family="Arial" font-size="13" lengthAdjust="spacing" textLength="101.0991" x="804.37" y="359.3038">manual trigger:</text><text fill="#000000" font-family="Arial" font-size="13" lengthAdjust="spacing" textLength="120.0723" x="804.37" y="374.4366">workflow_dispatch</text></g><g class="entity" data-entity="GMN23" data-source-line="48" data-uid="ent0024" id="entity_GMN23"><path d="M301.37,625.8669 L301.37,642.0069 L267.26,646.0069 L301.37,650.0069 L301.37,666.1325 A0,0 0 0 0 301.37,666.1325 L442.4423,666.1325 A0,0 0 0 0 442.4423,666.1325 L442.4423,635.8669 L432.4423,625.8669 L301.37,625.8669 A0,0 0 0 0 301.37,625.8669" fill="#FFFFE6" style="stroke:#CCCC99;stroke-width:0.5;"/><path d="M432.4423,625.8669 L432.4423,635.8669 L442.4423,635.8669 L432.4423,625.8669" fill="#FFFFE6" style="stroke:#CCCC99;stroke-width:0.5;"/><text fill="#000000" font-family="Arial" font-size="13" lengthAdjust="spacing" textLength="101.0991" x="307.37" y="642.9338">manual trigger:</text><text fill="#000000" font-family="Arial" font-size="13" lengthAdjust="spacing" textLength="120.0723" x="307.37" y="658.0666">workflow_dispatch</text></g><g class="entity" data-entity="GMN26" data-source-line="53" data-uid="ent0027" id="entity_GMN26"><path d="M712.91,772.3469 L712.91,827.7453 A0,0 0 0 0 712.91,827.7453 L860.9076,827.7453 A0,0 0 0 0 860.9076,827.7453 L860.9076,804.0469 L895.26,800.0469 L860.9076,796.0469 L860.9076,782.3469 L850.9076,772.3469 L712.91,772.3469 A0,0 0 0 0 712.91,772.3469" fill="#FFFFE6" style="stroke:#CCCC99;stroke-width:0.5;"/><path d="M850.9076,772.3469 L850.9076,782.3469 L860.9076,782.3469 L850.9076,772.3469" fill="#FFFFE6" style="stroke:#CCCC99;stroke-width:0.5;"/><text fill="#000000" font-family="Arial" font-size="13" lengthAdjust="spacing" textLength="122.9287" x="718.91" y="789.4138">reusable workflow:</text><text fill="#000000" font-family="Arial" font-size="13" lengthAdjust="spacing" textLength="111.7759" x="718.91" y="804.5466">on: workflow_call</text><text fill="#000000" font-family="Arial" font-size="13" lengthAdjust="spacing" textLength="126.9976" x="718.91" y="819.6794">not directly manual</text></g><g class="entity" data-entity="GMN29" data-source-line="59" data-uid="ent0030" id="entity_GMN29"><path d="M477.82,633.4369 L477.82,658.5697 A0,0 0 0 0 477.82,658.5697 L939.9948,658.5697 A0,0 0 0 0 939.9948,658.5697 L939.9948,643.4369 L929.9948,633.4369 L707.04,633.4369 L654.56,534.8469 L699.04,633.4369 L477.82,633.4369 A0,0 0 0 0 477.82,633.4369" fill="#FFFFE6" style="stroke:#CCCC99;stroke-width:0.5;"/><path d="M929.9948,633.4369 L929.9948,643.4369 L939.9948,643.4369 L929.9948,633.4369" fill="#FFFFE6" style="stroke:#CCCC99;stroke-width:0.5;"/><text fill="#000000" font-family="Arial" font-size="13" lengthAdjust="spacing" textLength="441.1748" x="483.82" y="650.5038">deploy has NO manual trigger (triggered by Build via workflow_run)</text></g><!--link COMP to SYS_LOCAL--><g class="link" data-entity-1="COMP" data-entity-2="SYS_LOCAL" data-source-line="22" data-uid="lnk8" id="link_COMP_SYS_LOCAL"><path d="M934.04,113.5269 C924.29,121.8969 915.54,131.8069 909.91,143.1869 C901.11,160.9969 906.8544,173.2844 922.9444,186.2944" fill="none" id="COMP-to-SYS_LOCAL" style="stroke:#181818;stroke-width:1;"/><polygon fill="#181818" points="927.61,190.0669,923.1266,181.2977,923.722,186.9231,918.0965,187.5185,927.61,190.0669" style="stroke:#181818;stroke-width:1;"/><text fill="#000000" font-family="Arial" font-size="13" lengthAdjust="spacing" textLength="136.9824" x="910.91" y="156.2538">independent triggers</text></g><!--link COMP to SYS_LOCAL--><!--link SYS_LOCAL to BUILD--><g class="link" data-entity-1="SYS_LOCAL" data-entity-2="BUILD" data-source-line="23" data-uid="lnk9" id="link_SYS_LOCAL_BUILD"><path d="M885.11,257.0169 C854.99,266.5469 822.44,277.5569 792.91,289.0769 C757.5,302.8869 724.1401,318.3213 694.2401,332.9413" fill="none" id="SYS_LOCAL-to-BUILD" style="stroke:#181818;stroke-width:1;"/><polygon fill="#181818" points="688.85,335.5769,698.6923,335.2169,693.3418,333.3806,695.1782,328.0301,688.85,335.5769" style="stroke:#181818;stroke-width:1;"/><text fill="#000000" font-family="Arial" font-size="13" lengthAdjust="spacing" textLength="172.0088" x="793.91" y="302.1438">workflow_run (on success)</text></g><!--link BUILD to DEPLOY--><g class="link" data-entity-1="BUILD" data-entity-2="DEPLOY" data-source-line="24" data-uid="lnk10" id="link_BUILD_DEPLOY"><path d="M637.91,388.9069 C637.91,410.4869 637.91,435.5769 637.91,459.2369" fill="none" id="BUILD-to-DEPLOY" style="stroke:#181818;stroke-width:1;"/><polygon fill="#181818" points="637.91,465.2369,641.91,456.2369,637.91,460.2369,633.91,456.2369,637.91,465.2369" style="stroke:#181818;stroke-width:1;"/><text fill="#000000" font-family="Arial" font-size="13" lengthAdjust="spacing" textLength="172.0088" x="638.91" y="431.7338">workflow_run (on success)</text></g><!--link DEPLOY to SYS_DEPLOYED--><g class="link" data-entity-1="DEPLOY" data-entity-2="SYS_DEPLOYED" data-source-line="25" data-uid="lnk11" id="link_DEPLOY_SYS_DEPLOYED"><path d="M558.52,523.9169 C476.72,547.4069 354.0368,582.6403 260.3968,609.5403" fill="none" id="DEPLOY-to-SYS_DEPLOYED" style="stroke:#181818;stroke-width:1;"/><polygon fill="#181818" points="254.63,611.1969,264.3846,612.5565,259.4356,609.8164,262.1757,604.8674,254.63,611.1969" style="stroke:#181818;stroke-width:1;"/><text fill="#000000" font-family="Arial" font-size="13" lengthAdjust="spacing" textLength="172.0088" x="403.91" y="577.6238">workflow_run (on success)</text></g><!--link SYS_LOCAL to SYS_REUSABLE--><g class="link" data-entity-1="SYS_LOCAL" data-entity-2="SYS_REUSABLE" data-source-line="28" data-uid="lnk12" id="link_SYS_LOCAL_SYS_REUSABLE"><path d="M992.91,259.3769 C992.91,286.8469 992.91,326.6069 992.91,361.3669 C992.91,361.3669 992.91,361.3669 992.91,647.0069 C992.91,684.2269 992.91,720.5669 992.91,751.0969" fill="none" id="SYS_LOCAL-to-SYS_REUSABLE" style="stroke:#181818;stroke-width:1;"/><polygon fill="#181818" points="992.91,757.0969,996.91,748.0969,992.91,752.0969,988.91,748.0969,992.91,757.0969" style="stroke:#181818;stroke-width:1;"/><text fill="#000000" font-family="Arial" font-size="13" lengthAdjust="spacing" textLength="148.7002" x="993.91" y="504.6838">uses (start_local=true)</text></g><!--link SYS_LOCAL to SYS_REUSABLE--><!--link SYS_DEPLOYED to SYS_REUSABLE--><g class="link" data-entity-1="SYS_DEPLOYED" data-entity-2="SYS_REUSABLE" data-source-line="29" data-uid="lnk13" id="link_SYS_DEPLOYED_SYS_REUSABLE"><path d="M267.03,677.2969 C272.72,678.4069 278.37,679.4669 283.91,680.4469 C545.99,727.1469 619.2,694.6969 877.91,757.4469 C883.69,758.8469 883.8198,758.7676 889.7198,760.4876" fill="none" id="SYS_DEPLOYED-to-SYS_REUSABLE" style="stroke:#181818;stroke-width:1;"/><polygon fill="#181818" points="895.48,762.1669,887.9592,755.8079,890.6798,760.7675,885.7202,763.4881,895.48,762.1669" style="stroke:#181818;stroke-width:1;"/><text fill="#000000" font-family="Arial" font-size="13" lengthAdjust="spacing" textLength="148.8906" x="719.91" y="723.5138">uses (base_url passed)</text></g><!--SRC=[fLNRJjj047ttLupe0ucgYBUgK1KfjxP8WKG92250qSQUn2lMkwkzDBLG_xsplYJ655g17o9xT-QSkPs9uquW3C-EXYEOSOs2IuJELfc7jL1R2nyXOz8p0SxmpGQDxKRH8LYN2upi0vUQ6PP1WclcXVkcfBjW6KBVS2OQzr8vXCS8OC3YXurHNYP39PI13sjwy5EuKIP1Kvt6z1mVHxyR40PZn-H6b3Zp4i98DF2PlXSfIzIMomsicR18deT4cg05PlUk5Zgwph58eHljOG-6AjDAedHmYTOHrfsSIhXC4UR8OjVBcCEGbuK9NnbcyZjvgxrDZsRpBs2zrieuMvNh_Y0G3wVdioR38hSEisVmrxY2ljQ2nynn9Vy9kxXPB2VJON_In9vx2Gry-pBwDNSf37Djq9BLhK5lsKhW2THTNyPCDAZcuwj5Vp0PDza6delaBu7l88oNBqG_k3gRZ9fO8zH2vG6CiEwaK_2Tknz-1JEsGTi21IL5NWADnhF9zEO_wbiIu1lZ3IKegSQZCFknaf8eoP_6AU6cV0UdTE-KPZ2yqSIj1Pr3WEv6OGoW5-vwf_lcmGbmcQ16-g6Pg_KLxGrgbw9YqEXFg4E7EAsFOsfYDoejQliosbSTAfDcK7MEh_fH_lMyxAo0lZVOZBj2h0U74BqDuhEE6RSKYkRhgpEUvFU4-4M_5REuz4Q0PjPYKeHn_cGj5Hl6WkFKPQf_AVrjYcOVvZBXLZCNfu2_E0aaAfOIkQSErBhKAhIstGcTFFEFg6C5NzI2sEloVJYbGjuVosvgtmGbSBr3sgq0UDx-0APaQtlG6O50AG-HL_njYfLoJcM1fD8oq3z9iGnI4jx5j1KsTAeNQl8gXt87_UJioRns6oI7T6i306KOqqQeb7YRyeGqTzzKOtDyM_Trydy0]--></g></svg>