<svg xmlns="http://www.w3.org/2000/svg" xmlns:xlink="http://www.w3.org/1999/xlink" contentStyleType="text/css" data-diagram-type="ACTIVITY" height="795px" preserveAspectRatio="none" style="width:2246px;height:795px;background:#FFFFFF;" version="1.1" viewBox="0 0 2246 795" width="2246px" zoomAndPan="magnify"><title>CI/CD Process with Branch Management</title><defs/><g><g class="title" data-source-line="1"><text fill="#000000" font-family="sans-serif" font-size="14" font-weight="bold" lengthAdjust="spacing" textLength="315.9297" x="963.9861" y="32.9951">CI/CD Process with Branch Management</text></g><ellipse cx="1091.4486" cy="57.2969" fill="#222222" rx="10" ry="10" style="stroke:#222222;stroke-width:1;"/><rect fill="#555555" height="6" rx="2.5" ry="2.5" style="stroke:#555555;stroke-width:1;" width="2224.9019" x="11" y="87.2969"/><path d="M269.7412,304.7617 L269.7412,336.0273 L249.7412,340.0273 L269.7412,344.0273 L269.7412,375.293 A0,0 0 0 0 269.7412,375.293 L563.1064,375.293 A0,0 0 0 0 563.1064,375.293 L563.1064,314.7617 L553.1064,304.7617 L269.7412,304.7617 A0,0 0 0 0 269.7412,304.7617" fill="#FEFFDD" style="stroke:#181818;stroke-width:0.5;"/><path d="M553.1064,304.7617 L553.1064,314.7617 L563.1064,314.7617 L553.1064,304.7617" fill="#FEFFDD" style="stroke:#181818;stroke-width:0.5;"/><text fill="#000000" font-family="sans-serif" font-size="13" lengthAdjust="spacing" textLength="272.3652" x="275.7412" y="321.8286">Verify individual component functionality.</text><text fill="#000000" font-family="sans-serif" font-size="13" lengthAdjust="spacing" textLength="263.6245" x="275.7412" y="336.9614">Triggered automatically on all branches.</text><text fill="#000000" font-family="sans-serif" font-size="13" lengthAdjust="spacing" textLength="223.8755" x="275.7412" y="352.0942">[Note] : Can also be run manually.</text><text fill="#000000" font-family="sans-serif" font-size="13" lengthAdjust="spacing" textLength="229.106" x="275.7412" y="367.2271">Independent from other workflows.</text><rect fill="#F1F1F1" height="33.9688" rx="12.5" ry="12.5" style="stroke:#181818;stroke-width:0.5;" width="125.4043" x="124.3369" y="323.043"/><text fill="#000000" font-family="sans-serif" font-size="12" lengthAdjust="spacing" textLength="105.4043" x="134.3369" y="344.1816">Component Tests</text><polygon fill="#F1F1F1" points="115.7969,410.293,258.2813,410.293,270.2813,422.293,258.2813,434.293,115.7969,434.293,103.7969,422.293,115.7969,410.293" style="stroke:#181818;stroke-width:0.5;"/><text fill="#000000" font-family="sans-serif" font-size="11" lengthAdjust="spacing" textLength="142.4844" x="115.7969" y="426.1011">Component tests passed?</text><text fill="#000000" font-family="sans-serif" font-size="11" lengthAdjust="spacing" textLength="19.2178" x="84.5791" y="419.6987">Yes</text><text fill="#000000" font-family="sans-serif" font-size="11" lengthAdjust="spacing" textLength="14.9585" x="270.2813" y="419.6987">No</text><rect fill="#F1F1F1" height="33.9688" rx="12.5" ry="12.5" style="stroke:#181818;stroke-width:0.5;" width="123.4824" x="23" y="444.293"/><text fill="#000000" font-family="sans-serif" font-size="12" lengthAdjust="spacing" textLength="103.4824" x="33" y="465.4316">Results validated</text><rect fill="#F1F1F1" height="33.9688" rx="12.5" ry="12.5" style="stroke:#181818;stroke-width:0.5;" width="245.709" x="166.4824" y="444.293"/><text fill="#000000" font-family="sans-serif" font-size="12" lengthAdjust="spacing" textLength="225.709" x="176.4824" y="465.4316">Fix issues and rerun component tests</text><polygon fill="#F1F1F1" points="187.0391,484.2617,199.0391,496.2617,187.0391,508.2617,175.0391,496.2617,187.0391,484.2617" style="stroke:#181818;stroke-width:0.5;"/><path d="M1939.2773,103.2969 L1939.2773,126.9961 L1919.2773,130.9961 L1939.2773,134.9961 L1939.2773,158.6953 A0,0 0 0 0 1939.2773,158.6953 L2223.9019,158.6953 A0,0 0 0 0 2223.9019,158.6953 L2223.9019,113.2969 L2213.9019,103.2969 L1939.2773,103.2969 A0,0 0 0 0 1939.2773,103.2969" fill="#FEFFDD" style="stroke:#181818;stroke-width:0.5;"/><path d="M2213.9019,103.2969 L2213.9019,113.2969 L2223.9019,113.2969 L2213.9019,103.2969" fill="#FEFFDD" style="stroke:#181818;stroke-width:0.5;"/><text fill="#000000" font-family="sans-serif" font-size="13" lengthAdjust="spacing" textLength="242.874" x="1945.2773" y="120.3638">Validate overall application behavior.</text><text fill="#000000" font-family="sans-serif" font-size="13" lengthAdjust="spacing" textLength="263.6245" x="1945.2773" y="135.4966">Triggered automatically on all branches.</text><text fill="#000000" font-family="sans-serif" font-size="13" lengthAdjust="spacing" textLength="223.8755" x="1945.2773" y="150.6294">[Note] : Can also be run manually.</text><rect fill="#F1F1F1" height="33.9688" rx="12.5" ry="12.5" style="stroke:#181818;stroke-width:0.5;" width="220.7891" x="1698.4883" y="114.0117"/><text fill="#000000" font-family="sans-serif" font-size="12" lengthAdjust="spacing" textLength="200.7891" x="1708.4883" y="135.1504">System Tests on Web Application</text><polygon fill="#F1F1F1" points="1749.0623,178.6953,1868.7034,178.6953,1880.7034,190.6953,1868.7034,202.6953,1749.0623,202.6953,1737.0623,190.6953,1749.0623,178.6953" style="stroke:#181818;stroke-width:0.5;"/><text fill="#000000" font-family="sans-serif" font-size="11" lengthAdjust="spacing" textLength="119.6411" x="1749.0623" y="194.5034">System tests passed?</text><text fill="#000000" font-family="sans-serif" font-size="11" lengthAdjust="spacing" textLength="19.2178" x="1717.8445" y="188.1011">Yes</text><text fill="#000000" font-family="sans-serif" font-size="11" lengthAdjust="spacing" textLength="14.9585" x="1880.7034" y="188.1011">No</text><polygon fill="#F1F1F1" points="1470.4294,212.6953,1544.2605,212.6953,1556.2605,224.6953,1544.2605,236.6953,1470.4294,236.6953,1458.4294,224.6953,1470.4294,212.6953" style="stroke:#181818;stroke-width:0.5;"/><text fill="#000000" font-family="sans-serif" font-size="11" lengthAdjust="spacing" textLength="73.8311" x="1470.4294" y="228.5034">Main branch?</text><text fill="#000000" font-family="sans-serif" font-size="11" lengthAdjust="spacing" textLength="19.2178" x="1439.2117" y="222.1011">Yes</text><text fill="#000000" font-family="sans-serif" font-size="11" lengthAdjust="spacing" textLength="14.9585" x="1556.2605" y="222.1011">No</text><path d="M1255.6433,246.6953 L1255.6433,270.3945 L1235.6433,274.3945 L1255.6433,278.3945 L1255.6433,302.0938 A0,0 0 0 0 1255.6433,302.0938 L1716.8152,302.0938 A0,0 0 0 0 1716.8152,302.0938 L1716.8152,256.6953 L1706.8152,246.6953 L1255.6433,246.6953 A0,0 0 0 0 1255.6433,246.6953" fill="#FEFFDD" style="stroke:#181818;stroke-width:0.5;"/><path d="M1706.8152,246.6953 L1706.8152,256.6953 L1716.8152,256.6953 L1706.8152,246.6953" fill="#FEFFDD" style="stroke:#181818;stroke-width:0.5;"/><text fill="#000000" font-family="sans-serif" font-size="13" lengthAdjust="spacing" textLength="207.4097" x="1261.6433" y="263.7622">Generates the production build.</text><text fill="#000000" font-family="sans-serif" font-size="13" lengthAdjust="spacing" textLength="440.1719" x="1261.6433" y="278.895">Triggered automatically only on main branch after successful tests.</text><text fill="#000000" font-family="sans-serif" font-size="13" lengthAdjust="spacing" textLength="223.8755" x="1261.6433" y="294.0278">[Note] : Can also be run manually.</text><rect fill="#F1F1F1" height="33.9688" rx="12.5" ry="12.5" style="stroke:#181818;stroke-width:0.5;" width="151.666" x="1083.9773" y="257.4102"/><text fill="#000000" font-family="sans-serif" font-size="12" lengthAdjust="spacing" textLength="131.666" x="1093.9773" y="278.5488">Build Web Application</text><polygon fill="#F1F1F1" points="1111.8035,337.0938,1207.8171,337.0938,1219.8171,349.0938,1207.8171,361.0938,1111.8035,361.0938,1099.8035,349.0938,1111.8035,337.0938" style="stroke:#181818;stroke-width:0.5;"/><text fill="#000000" font-family="sans-serif" font-size="11" lengthAdjust="spacing" textLength="96.0137" x="1111.8035" y="352.9019">Build succeeded?</text><text fill="#000000" font-family="sans-serif" font-size="11" lengthAdjust="spacing" textLength="19.2178" x="1080.5857" y="346.4995">Yes</text><text fill="#000000" font-family="sans-serif" font-size="11" lengthAdjust="spacing" textLength="14.9585" x="1219.8171" y="346.4995">No</text><path d="M962.5088,371.0938 L962.5088,387.2266 L942.5088,391.2266 L962.5088,395.2266 L962.5088,411.3594 A0,0 0 0 0 962.5088,411.3594 L1332.8838,411.3594 A0,0 0 0 0 1332.8838,411.3594 L1332.8838,381.0938 L1322.8838,371.0938 L962.5088,371.0938 A0,0 0 0 0 962.5088,371.0938" fill="#FEFFDD" style="stroke:#181818;stroke-width:0.5;"/><path d="M1322.8838,371.0938 L1322.8838,381.0938 L1332.8838,381.0938 L1322.8838,371.0938" fill="#FEFFDD" style="stroke:#181818;stroke-width:0.5;"/><text fill="#000000" font-family="sans-serif" font-size="13" lengthAdjust="spacing" textLength="349.375" x="968.5088" y="388.1606">Publishes the built version to the target environment.</text><text fill="#000000" font-family="sans-serif" font-size="13" lengthAdjust="spacing" textLength="302.5103" x="968.5088" y="403.2935">Triggered automatically after successful build.</text><rect fill="#F1F1F1" height="33.9688" rx="12.5" ry="12.5" style="stroke:#181818;stroke-width:0.5;" width="163.5605" x="778.9482" y="374.2422"/><text fill="#000000" font-family="sans-serif" font-size="12" lengthAdjust="spacing" textLength="143.5605" x="788.9482" y="395.3809">Deploy Web Application</text><path d="M1006.1992,446.3594 L1006.1992,470.0586 L986.1992,474.0586 L1006.1992,478.0586 L1006.1992,501.7578 A0,0 0 0 0 1006.1992,501.7578 L1354.1353,501.7578 A0,0 0 0 0 1354.1353,501.7578 L1354.1353,456.3594 L1344.1353,446.3594 L1006.1992,446.3594 A0,0 0 0 0 1006.1992,446.3594" fill="#FEFFDD" style="stroke:#181818;stroke-width:0.5;"/><path d="M1344.1353,446.3594 L1344.1353,456.3594 L1354.1353,456.3594 L1344.1353,446.3594" fill="#FEFFDD" style="stroke:#181818;stroke-width:0.5;"/><text fill="#000000" font-family="sans-serif" font-size="13" lengthAdjust="spacing" textLength="287.7646" x="1012.1992" y="463.4263">Validate functionality of the live application.</text><text fill="#000000" font-family="sans-serif" font-size="13" lengthAdjust="spacing" textLength="276.8911" x="1012.1992" y="478.5591">Triggered automatically after deployment.</text><text fill="#000000" font-family="sans-serif" font-size="13" lengthAdjust="spacing" textLength="326.936" x="1012.1992" y="493.6919">[Note] : Can also be launched manually if needed.</text><rect fill="#F1F1F1" height="33.9688" rx="12.5" ry="12.5" style="stroke:#181818;stroke-width:0.5;" width="250.9414" x="735.2578" y="457.0742"/><text fill="#000000" font-family="sans-serif" font-size="12" lengthAdjust="spacing" textLength="230.9414" x="745.2578" y="478.2129">System Tests on Deployed Application</text><polygon fill="#F1F1F1" points="774.8313,528.2617,946.6257,528.2617,958.6257,540.2617,946.6257,552.2617,774.8313,552.2617,762.8313,540.2617,774.8313,528.2617" style="stroke:#181818;stroke-width:0.5;"/><text fill="#000000" font-family="sans-serif" font-size="11" lengthAdjust="spacing" textLength="171.7944" x="774.8313" y="544.0698">Post-deployment tests passed?</text><text fill="#000000" font-family="sans-serif" font-size="11" lengthAdjust="spacing" textLength="19.2178" x="743.6135" y="537.6675">Yes</text><text fill="#000000" font-family="sans-serif" font-size="11" lengthAdjust="spacing" textLength="14.9585" x="958.6257" y="537.6675">No</text><rect fill="#F1F1F1" height="33.9688" rx="12.5" ry="12.5" style="stroke:#181818;stroke-width:0.5;" width="276.8809" x="573.1064" y="562.2617"/><text fill="#000000" font-family="sans-serif" font-size="12" lengthAdjust="spacing" textLength="256.8809" x="583.1064" y="583.4004">Process complete — deployment validated</text><rect fill="#F1F1F1" height="33.9688" rx="12.5" ry="12.5" style="stroke:#181818;stroke-width:0.5;" width="279.8457" x="869.9873" y="562.2617"/><text fill="#000000" font-family="sans-serif" font-size="12" lengthAdjust="spacing" textLength="259.8457" x="879.9873" y="583.4004">Fix issues and rerun post-deployment tests</text><polygon fill="#F1F1F1" points="860.7285,602.2305,872.7285,614.2305,860.7285,626.2305,848.7285,614.2305,860.7285,602.2305" style="stroke:#181818;stroke-width:0.5;"/><rect fill="#F1F1F1" height="33.9688" rx="12.5" ry="12.5" style="stroke:#181818;stroke-width:0.5;" width="169.5137" x="1374.1353" y="371.0938"/><text fill="#000000" font-family="sans-serif" font-size="12" lengthAdjust="spacing" textLength="149.5137" x="1384.1353" y="392.2324">Fix build errors and retry</text><polygon fill="#F1F1F1" points="1159.8103,632.2305,1171.8103,644.2305,1159.8103,656.2305,1147.8103,644.2305,1159.8103,632.2305" style="stroke:#181818;stroke-width:0.5;"/><rect fill="#F1F1F1" height="33.9688" rx="12.5" ry="12.5" style="stroke:#181818;stroke-width:0.5;" width="236.1289" x="1736.8152" y="246.6953"/><text fill="#000000" font-family="sans-serif" font-size="12" lengthAdjust="spacing" textLength="216.1289" x="1746.8152" y="267.834">End of pipeline for non-main branch</text><polygon fill="#F1F1F1" points="1507.345,662.2305,1519.345,674.2305,1507.345,686.2305,1495.345,674.2305,1507.345,662.2305" style="stroke:#181818;stroke-width:0.5;"/><rect fill="#F1F1F1" height="33.9688" rx="12.5" ry="12.5" style="stroke:#181818;stroke-width:0.5;" width="214.9531" x="2002.9441" y="212.6953"/><text fill="#000000" font-family="sans-serif" font-size="12" lengthAdjust="spacing" textLength="194.9531" x="2012.9441" y="233.834">Fix system test issues and rerun</text><polygon fill="#F1F1F1" points="1808.8828,692.2305,1820.8828,704.2305,1808.8828,716.2305,1796.8828,704.2305,1808.8828,692.2305" style="stroke:#181818;stroke-width:0.5;"/><rect fill="#555555" height="6" rx="2.5" ry="2.5" style="stroke:#555555;stroke-width:1;" width="2224.9019" x="11" y="736.2305"/><ellipse cx="1091.4486" cy="773.2305" fill="none" rx="11" ry="11" style="stroke:#222222;stroke-width:1;"/><ellipse cx="1091.4486" cy="773.2305" fill="#222222" rx="6" ry="6" style="stroke:#222222;stroke-width:1;"/><line style="stroke:#181818;stroke-width:1;" x1="103.7969" x2="84.7412" y1="422.293" y2="422.293"/><line style="stroke:#181818;stroke-width:1;" x1="84.7412" x2="84.7412" y1="422.293" y2="444.293"/><polygon fill="#181818" points="80.7412,434.293,84.7412,444.293,88.7412,434.293,84.7412,438.293" style="stroke:#181818;stroke-width:1;"/><line style="stroke:#181818;stroke-width:1;" x1="270.2813" x2="289.3369" y1="422.293" y2="422.293"/><line style="stroke:#181818;stroke-width:1;" x1="289.3369" x2="289.3369" y1="422.293" y2="444.293"/><polygon fill="#181818" points="285.3369,434.293,289.3369,444.293,293.3369,434.293,289.3369,438.293" style="stroke:#181818;stroke-width:1;"/><line style="stroke:#181818;stroke-width:1;" x1="84.7412" x2="84.7412" y1="478.2617" y2="496.2617"/><line style="stroke:#181818;stroke-width:1;" x1="84.7412" x2="175.0391" y1="496.2617" y2="496.2617"/><polygon fill="#181818" points="165.0391,492.2617,175.0391,496.2617,165.0391,500.2617,169.0391,496.2617" style="stroke:#181818;stroke-width:1;"/><line style="stroke:#181818;stroke-width:1;" x1="289.3369" x2="289.3369" y1="478.2617" y2="496.2617"/><line style="stroke:#181818;stroke-width:1;" x1="289.3369" x2="199.0391" y1="496.2617" y2="496.2617"/><polygon fill="#181818" points="209.0391,492.2617,199.0391,496.2617,209.0391,500.2617,205.0391,496.2617" style="stroke:#181818;stroke-width:1;"/><line style="stroke:#181818;stroke-width:1;" x1="187.0391" x2="187.0391" y1="357.0117" y2="410.293"/><polygon fill="#181818" points="183.0391,400.293,187.0391,410.293,191.0391,400.293,187.0391,404.293" style="stroke:#181818;stroke-width:1;"/><line style="stroke:#181818;stroke-width:1;" x1="860.7285" x2="860.7285" y1="408.2109" y2="457.0742"/><polygon fill="#181818" points="856.7285,447.0742,860.7285,457.0742,864.7285,447.0742,860.7285,451.0742" style="stroke:#181818;stroke-width:1;"/><line style="stroke:#181818;stroke-width:1;" x1="762.8313" x2="711.5469" y1="540.2617" y2="540.2617"/><line style="stroke:#181818;stroke-width:1;" x1="711.5469" x2="711.5469" y1="540.2617" y2="562.2617"/><polygon fill="#181818" points="707.5469,552.2617,711.5469,562.2617,715.5469,552.2617,711.5469,556.2617" style="stroke:#181818;stroke-width:1;"/><line style="stroke:#181818;stroke-width:1;" x1="958.6257" x2="1009.9102" y1="540.2617" y2="540.2617"/><line style="stroke:#181818;stroke-width:1;" x1="1009.9102" x2="1009.9102" y1="540.2617" y2="562.2617"/><polygon fill="#181818" points="1005.9102,552.2617,1009.9102,562.2617,1013.9102,552.2617,1009.9102,556.2617" style="stroke:#181818;stroke-width:1;"/><line style="stroke:#181818;stroke-width:1;" x1="711.5469" x2="711.5469" y1="596.2305" y2="614.2305"/><line style="stroke:#181818;stroke-width:1;" x1="711.5469" x2="848.7285" y1="614.2305" y2="614.2305"/><polygon fill="#181818" points="838.7285,610.2305,848.7285,614.2305,838.7285,618.2305,842.7285,614.2305" style="stroke:#181818;stroke-width:1;"/><line style="stroke:#181818;stroke-width:1;" x1="1009.9102" x2="1009.9102" y1="596.2305" y2="614.2305"/><line style="stroke:#181818;stroke-width:1;" x1="1009.9102" x2="872.7285" y1="614.2305" y2="614.2305"/><polygon fill="#181818" points="882.7285,610.2305,872.7285,614.2305,882.7285,618.2305,878.7285,614.2305" style="stroke:#181818;stroke-width:1;"/><line style="stroke:#181818;stroke-width:1;" x1="860.7285" x2="860.7285" y1="491.043" y2="528.2617"/><polygon fill="#181818" points="856.7285,518.2617,860.7285,528.2617,864.7285,518.2617,860.7285,522.2617" style="stroke:#181818;stroke-width:1;"/><line style="stroke:#181818;stroke-width:1;" x1="1099.8035" x2="860.7285" y1="349.0938" y2="349.0938"/><line style="stroke:#181818;stroke-width:1;" x1="860.7285" x2="860.7285" y1="349.0938" y2="374.2422"/><polygon fill="#181818" points="856.7285,364.2422,860.7285,374.2422,864.7285,364.2422,860.7285,368.2422" style="stroke:#181818;stroke-width:1;"/><line style="stroke:#181818;stroke-width:1;" x1="1219.8171" x2="1458.8921" y1="349.0938" y2="349.0938"/><line style="stroke:#181818;stroke-width:1;" x1="1458.8921" x2="1458.8921" y1="349.0938" y2="371.0938"/><polygon fill="#181818" points="1454.8921,361.0938,1458.8921,371.0938,1462.8921,361.0938,1458.8921,365.0938" style="stroke:#181818;stroke-width:1;"/><line style="stroke:#181818;stroke-width:1;" x1="860.7285" x2="860.7285" y1="626.2305" y2="644.2305"/><line style="stroke:#181818;stroke-width:1;" x1="860.7285" x2="1147.8103" y1="644.2305" y2="644.2305"/><polygon fill="#181818" points="1137.8103,640.2305,1147.8103,644.2305,1137.8103,648.2305,1141.8103,644.2305" style="stroke:#181818;stroke-width:1;"/><line style="stroke:#181818;stroke-width:1;" x1="1458.8921" x2="1458.8921" y1="405.0625" y2="644.2305"/><line style="stroke:#181818;stroke-width:1;" x1="1458.8921" x2="1171.8103" y1="644.2305" y2="644.2305"/><polygon fill="#181818" points="1181.8103,640.2305,1171.8103,644.2305,1181.8103,648.2305,1177.8103,644.2305" style="stroke:#181818;stroke-width:1;"/><line style="stroke:#181818;stroke-width:1;" x1="1159.8103" x2="1159.8103" y1="291.3789" y2="337.0938"/><polygon fill="#181818" points="1155.8103,327.0938,1159.8103,337.0938,1163.8103,327.0938,1159.8103,331.0938" style="stroke:#181818;stroke-width:1;"/><line style="stroke:#181818;stroke-width:1;" x1="1458.4294" x2="1159.8103" y1="224.6953" y2="224.6953"/><line style="stroke:#181818;stroke-width:1;" x1="1159.8103" x2="1159.8103" y1="224.6953" y2="257.4102"/><polygon fill="#181818" points="1155.8103,247.4102,1159.8103,257.4102,1163.8103,247.4102,1159.8103,251.4102" style="stroke:#181818;stroke-width:1;"/><line style="stroke:#181818;stroke-width:1;" x1="1556.2605" x2="1854.8796" y1="224.6953" y2="224.6953"/><line style="stroke:#181818;stroke-width:1;" x1="1854.8796" x2="1854.8796" y1="224.6953" y2="246.6953"/><polygon fill="#181818" points="1850.8796,236.6953,1854.8796,246.6953,1858.8796,236.6953,1854.8796,240.6953" style="stroke:#181818;stroke-width:1;"/><line style="stroke:#181818;stroke-width:1;" x1="1159.8103" x2="1159.8103" y1="656.2305" y2="674.2305"/><line style="stroke:#181818;stroke-width:1;" x1="1159.8103" x2="1495.345" y1="674.2305" y2="674.2305"/><polygon fill="#181818" points="1485.345,670.2305,1495.345,674.2305,1485.345,678.2305,1489.345,674.2305" style="stroke:#181818;stroke-width:1;"/><line style="stroke:#181818;stroke-width:1;" x1="1854.8796" x2="1854.8796" y1="280.6641" y2="674.2305"/><line style="stroke:#181818;stroke-width:1;" x1="1854.8796" x2="1519.345" y1="674.2305" y2="674.2305"/><polygon fill="#181818" points="1529.345,670.2305,1519.345,674.2305,1529.345,678.2305,1525.345,674.2305" style="stroke:#181818;stroke-width:1;"/><line style="stroke:#181818;stroke-width:1;" x1="1737.0623" x2="1507.345" y1="190.6953" y2="190.6953"/><line style="stroke:#181818;stroke-width:1;" x1="1507.345" x2="1507.345" y1="190.6953" y2="212.6953"/><polygon fill="#181818" points="1503.345,202.6953,1507.345,212.6953,1511.345,202.6953,1507.345,206.6953" style="stroke:#181818;stroke-width:1;"/><line style="stroke:#181818;stroke-width:1;" x1="1880.7034" x2="2110.4207" y1="190.6953" y2="190.6953"/><line style="stroke:#181818;stroke-width:1;" x1="2110.4207" x2="2110.4207" y1="190.6953" y2="212.6953"/><polygon fill="#181818" points="2106.4207,202.6953,2110.4207,212.6953,2114.4207,202.6953,2110.4207,206.6953" style="stroke:#181818;stroke-width:1;"/><line style="stroke:#181818;stroke-width:1;" x1="1507.345" x2="1507.345" y1="686.2305" y2="704.2305"/><line style="stroke:#181818;stroke-width:1;" x1="1507.345" x2="1796.8828" y1="704.2305" y2="704.2305"/><polygon fill="#181818" points="1786.8828,700.2305,1796.8828,704.2305,1786.8828,708.2305,1790.8828,704.2305" style="stroke:#181818;stroke-width:1;"/><line style="stroke:#181818;stroke-width:1;" x1="2110.4207" x2="2110.4207" y1="246.6641" y2="704.2305"/><line style="stroke:#181818;stroke-width:1;" x1="2110.4207" x2="1820.8828" y1="704.2305" y2="704.2305"/><polygon fill="#181818" points="1830.8828,700.2305,1820.8828,704.2305,1830.8828,708.2305,1826.8828,704.2305" style="stroke:#181818;stroke-width:1;"/><line style="stroke:#181818;stroke-width:1;" x1="1808.8828" x2="1808.8828" y1="147.9805" y2="178.6953"/><polygon fill="#181818" points="1804.8828,168.6953,1808.8828,178.6953,1812.8828,168.6953,1808.8828,172.6953" style="stroke:#181818;stroke-width:1;"/><line style="stroke:#181818;stroke-width:1;" x1="187.0391" x2="187.0391" y1="93.2969" y2="323.043"/><polygon fill="#181818" points="183.0391,313.043,187.0391,323.043,191.0391,313.043,187.0391,317.043" style="stroke:#181818;stroke-width:1;"/><line style="stroke:#181818;stroke-width:1;" x1="1808.8828" x2="1808.8828" y1="93.2969" y2="114.0117"/><polygon fill="#181818" points="1804.8828,104.0117,1808.8828,114.0117,1812.8828,104.0117,1808.8828,108.0117" style="stroke:#181818;stroke-width:1;"/><line style="stroke:#181818;stroke-width:1;" x1="187.0391" x2="187.0391" y1="508.2617" y2="736.2305"/><polygon fill="#181818" points="183.0391,726.2305,187.0391,736.2305,191.0391,726.2305,187.0391,730.2305" style="stroke:#181818;stroke-width:1;"/><line style="stroke:#181818;stroke-width:1;" x1="1808.8828" x2="1808.8828" y1="716.2305" y2="736.2305"/><polygon fill="#181818" points="1804.8828,726.2305,1808.8828,736.2305,1812.8828,726.2305,1808.8828,730.2305" style="stroke:#181818;stroke-width:1;"/><line style="stroke:#181818;stroke-width:1;" x1="1091.4486" x2="1091.4486" y1="67.2969" y2="87.2969"/><polygon fill="#181818" points="1087.4486,77.2969,1091.4486,87.2969,1095.4486,77.2969,1091.4486,81.2969" style="stroke:#181818;stroke-width:1;"/><line style="stroke:#181818;stroke-width:1;" x1="1091.4486" x2="1091.4486" y1="742.2305" y2="762.2305"/><polygon fill="#181818" points="1087.4486,752.2305,1091.4486,762.2305,1095.4486,752.2305,1091.4486,756.2305" style="stroke:#181818;stroke-width:1;"/><!--SRC=[jPMzRjj03CTtFmL7PuYxsqFHE4sH8O7H1YsAeiDPegn3JqVXFkHwwqFq2Via9K-oPTbowgKQ_27noF__npigw60GbezlblUmSfIXzx3LeOGxfsnMmfEoQeCLsZ2P-A0SVnNaVam0vakgQhBy15xG1x_WUvO2WjERCl2Vp-XqiGDjSzteF2e3sM554MqMD5bbTDZDEFY5LstGOGug1gfKq9aoPWTaWRzXdTIWbz1lprpbEynXgUIX9rXpqMYXKZRA8Wbwj3dMo1zIp54554fqi6NjXQ5jIiIFa-89_zO5J7j3GGn1hRp7_EqDy58Bqw_eRpYIdNz47mq7D2m_Lm5pyOx68qoVgOjvq3z1Un_HW-8w3aLXDgomQ4Ne8Z45jL7Q2jbFEn-mQh4AWI-uXdTrRPY9G3idtUa0Qj09BjK7CvnIDPhS_w1yIh0J_Ze-2NnYfrsvym0cS1UroSTyopNmBjS7jEoRgqecg1tbCMkzIvfP5tNPV4kWwZM1AWBl5XypEH15DAsbVQQhsCXrp6TllRMMKcC-nYS1kCVQqEuIWH460AkuDjgN7GMn7e3tWnSGWT9DFi0R32ohqOwidEhPOVabF6Se1b3FFOxitzOCPxxMoc533-O4K95S6DtWyHQ_raEUP0nTZxRIg2Zd83_qKnfdKxjUyotTNP4FjtsXVno5ZjT-yCfuCCYs__pwVQHsE6UwweDfq-KPdJdrcAB5iGsUFvUIffIfuO3EaTid3cwtc9mcE5q-Vy-ntBDQrsYqvMwIOsJszkYajLdsEKPcgEz7ofctVdvACz9xYLzILFy5]--></g></svg>