<svg xmlns="http://www.w3.org/2000/svg" xmlns:xlink="http://www.w3.org/1999/xlink" contentStyleType="text/css" data-diagram-type="ACTIVITY" height="787px" preserveAspectRatio="none" style="width:2239px;height:787px;background:#FFFFFF;" version="1.1" viewBox="0 0 2239 787" width="2239px" zoomAndPan="magnify"><title>CI/CD Process with Branch Management</title><defs/><g><g class="title" data-source-line="1"><text fill="#000000" font-family="sans-serif" font-size="14" font-weight="bold" lengthAdjust="spacing" textLength="315.9297" x="960.4171" y="32.9951">CI/CD Process with Branch Management</text></g><ellipse cx="1087.8796" cy="57.2969" fill="#222222" rx="10" ry="10" style="stroke:#222222;stroke-width:1;"/><rect fill="#555555" height="6" rx="2.5" ry="2.5" style="stroke:#555555;stroke-width:1;" width="2217.7639" x="11" y="87.2969"/><path d="M269.7412,296.9609 L269.7412,328.2266 L249.7412,332.2266 L269.7412,336.2266 L269.7412,367.4922 A0,0 0 0 0 269.7412,367.4922 L563.1064,367.4922 A0,0 0 0 0 563.1064,367.4922 L563.1064,306.9609 L553.1064,296.9609 L269.7412,296.9609 A0,0 0 0 0 269.7412,296.9609" fill="#FEFFDD" style="stroke:#181818;stroke-width:0.5;"/><path d="M553.1064,296.9609 L553.1064,306.9609 L563.1064,306.9609 L553.1064,296.9609" fill="#FEFFDD" style="stroke:#181818;stroke-width:0.5;"/><text fill="#000000" font-family="sans-serif" font-size="13" lengthAdjust="spacing" textLength="272.3652" x="275.7412" y="314.0278">Verify individual component functionality.</text><text fill="#000000" font-family="sans-serif" font-size="13" lengthAdjust="spacing" textLength="263.6245" x="275.7412" y="329.1606">Triggered automatically on all branches.</text><text fill="#000000" font-family="sans-serif" font-size="13" lengthAdjust="spacing" textLength="209.5996" x="275.7412" y="344.2935">Note: Can also be run manually.</text><text fill="#000000" font-family="sans-serif" font-size="13" lengthAdjust="spacing" textLength="229.106" x="275.7412" y="359.4263">Independent from other workflows.</text><rect fill="#F1F1F1" height="33.9688" rx="12.5" ry="12.5" style="stroke:#181818;stroke-width:0.5;" width="125.4043" x="124.3369" y="315.2422"/><text fill="#000000" font-family="sans-serif" font-size="12" lengthAdjust="spacing" textLength="105.4043" x="134.3369" y="336.3809">Component Tests</text><polygon fill="#F1F1F1" points="115.7969,402.4922,258.2813,402.4922,270.2813,414.4922,258.2813,426.4922,115.7969,426.4922,103.7969,414.4922,115.7969,402.4922" style="stroke:#181818;stroke-width:0.5;"/><text fill="#000000" font-family="sans-serif" font-size="11" lengthAdjust="spacing" textLength="142.4844" x="115.7969" y="418.3003">Component tests passed?</text><text fill="#000000" font-family="sans-serif" font-size="11" lengthAdjust="spacing" textLength="19.2178" x="84.5791" y="411.8979">Yes</text><text fill="#000000" font-family="sans-serif" font-size="11" lengthAdjust="spacing" textLength="14.9585" x="270.2813" y="411.8979">No</text><rect fill="#F1F1F1" height="33.9688" rx="12.5" ry="12.5" style="stroke:#181818;stroke-width:0.5;" width="123.4824" x="23" y="436.4922"/><text fill="#000000" font-family="sans-serif" font-size="12" lengthAdjust="spacing" textLength="103.4824" x="33" y="457.6309">Results validated</text><rect fill="#F1F1F1" height="33.9688" rx="12.5" ry="12.5" style="stroke:#181818;stroke-width:0.5;" width="245.709" x="166.4824" y="436.4922"/><text fill="#000000" font-family="sans-serif" font-size="12" lengthAdjust="spacing" textLength="225.709" x="176.4824" y="457.6309">Fix issues and rerun component tests</text><polygon fill="#F1F1F1" points="187.0391,476.4609,199.0391,488.4609,187.0391,500.4609,175.0391,488.4609,187.0391,476.4609" style="stroke:#181818;stroke-width:0.5;"/><path d="M1932.1394,103.2969 L1932.1394,126.9961 L1912.1394,130.9961 L1932.1394,134.9961 L1932.1394,158.6953 A0,0 0 0 0 1932.1394,158.6953 L2216.7639,158.6953 A0,0 0 0 0 2216.7639,158.6953 L2216.7639,113.2969 L2206.7639,103.2969 L1932.1394,103.2969 A0,0 0 0 0 1932.1394,103.2969" fill="#FEFFDD" style="stroke:#181818;stroke-width:0.5;"/><path d="M2206.7639,103.2969 L2206.7639,113.2969 L2216.7639,113.2969 L2206.7639,103.2969" fill="#FEFFDD" style="stroke:#181818;stroke-width:0.5;"/><text fill="#000000" font-family="sans-serif" font-size="13" lengthAdjust="spacing" textLength="242.874" x="1938.1394" y="120.3638">Validate overall application behavior.</text><text fill="#000000" font-family="sans-serif" font-size="13" lengthAdjust="spacing" textLength="263.6245" x="1938.1394" y="135.4966">Triggered automatically on all branches.</text><text fill="#000000" font-family="sans-serif" font-size="13" lengthAdjust="spacing" textLength="209.5996" x="1938.1394" y="150.6294">Note: Can also be run manually.</text><rect fill="#F1F1F1" height="33.9688" rx="12.5" ry="12.5" style="stroke:#181818;stroke-width:0.5;" width="220.7891" x="1691.3503" y="114.0117"/><text fill="#000000" font-family="sans-serif" font-size="12" lengthAdjust="spacing" textLength="200.7891" x="1701.3503" y="135.1504">System Tests on Web Application</text><polygon fill="#F1F1F1" points="1741.9243,178.6953,1861.5654,178.6953,1873.5654,190.6953,1861.5654,202.6953,1741.9243,202.6953,1729.9243,190.6953,1741.9243,178.6953" style="stroke:#181818;stroke-width:0.5;"/><text fill="#000000" font-family="sans-serif" font-size="11" lengthAdjust="spacing" textLength="119.6411" x="1741.9243" y="194.5034">System tests passed?</text><text fill="#000000" font-family="sans-serif" font-size="11" lengthAdjust="spacing" textLength="19.2178" x="1710.7065" y="188.1011">Yes</text><text fill="#000000" font-family="sans-serif" font-size="11" lengthAdjust="spacing" textLength="14.9585" x="1873.5654" y="188.1011">No</text><polygon fill="#F1F1F1" points="1463.2915,212.6953,1537.1226,212.6953,1549.1226,224.6953,1537.1226,236.6953,1463.2915,236.6953,1451.2915,224.6953,1463.2915,212.6953" style="stroke:#181818;stroke-width:0.5;"/><text fill="#000000" font-family="sans-serif" font-size="11" lengthAdjust="spacing" textLength="73.8311" x="1463.2915" y="228.5034">Main branch?</text><text fill="#000000" font-family="sans-serif" font-size="11" lengthAdjust="spacing" textLength="19.2178" x="1432.0737" y="222.1011">Yes</text><text fill="#000000" font-family="sans-serif" font-size="11" lengthAdjust="spacing" textLength="14.9585" x="1549.1226" y="222.1011">No</text><path d="M1248.5054,246.6953 L1248.5054,262.8281 L1228.5054,266.8281 L1248.5054,270.8281 L1248.5054,286.9609 A0,0 0 0 0 1248.5054,286.9609 L1709.6772,286.9609 A0,0 0 0 0 1709.6772,286.9609 L1709.6772,256.6953 L1699.6772,246.6953 L1248.5054,246.6953 A0,0 0 0 0 1248.5054,246.6953" fill="#FEFFDD" style="stroke:#181818;stroke-width:0.5;"/><path d="M1699.6772,246.6953 L1699.6772,256.6953 L1709.6772,256.6953 L1699.6772,246.6953" fill="#FEFFDD" style="stroke:#181818;stroke-width:0.5;"/><text fill="#000000" font-family="sans-serif" font-size="13" lengthAdjust="spacing" textLength="207.4097" x="1254.5054" y="263.7622">Generates the production build.</text><text fill="#000000" font-family="sans-serif" font-size="13" lengthAdjust="spacing" textLength="440.1719" x="1254.5054" y="278.895">Triggered automatically only on main branch after successful tests.</text><rect fill="#F1F1F1" height="33.9688" rx="12.5" ry="12.5" style="stroke:#181818;stroke-width:0.5;" width="151.666" x="1076.8394" y="249.8438"/><text fill="#000000" font-family="sans-serif" font-size="12" lengthAdjust="spacing" textLength="131.666" x="1086.8394" y="270.9824">Build Web Application</text><polygon fill="#F1F1F1" points="1104.6655,314.1602,1200.6792,314.1602,1212.6792,326.1602,1200.6792,338.1602,1104.6655,338.1602,1092.6655,326.1602,1104.6655,314.1602" style="stroke:#181818;stroke-width:0.5;"/><text fill="#000000" font-family="sans-serif" font-size="11" lengthAdjust="spacing" textLength="96.0137" x="1104.6655" y="329.9683">Build succeeded?</text><text fill="#000000" font-family="sans-serif" font-size="11" lengthAdjust="spacing" textLength="19.2178" x="1073.4478" y="323.5659">Yes</text><text fill="#000000" font-family="sans-serif" font-size="11" lengthAdjust="spacing" textLength="14.9585" x="1212.6792" y="323.5659">No</text><path d="M962.5088,348.1602 L962.5088,371.8594 L942.5088,375.8594 L962.5088,379.8594 L962.5088,403.5586 A0,0 0 0 0 962.5088,403.5586 L1332.8838,403.5586 A0,0 0 0 0 1332.8838,403.5586 L1332.8838,358.1602 L1322.8838,348.1602 L962.5088,348.1602 A0,0 0 0 0 962.5088,348.1602" fill="#FEFFDD" style="stroke:#181818;stroke-width:0.5;"/><path d="M1322.8838,348.1602 L1322.8838,358.1602 L1332.8838,358.1602 L1322.8838,348.1602" fill="#FEFFDD" style="stroke:#181818;stroke-width:0.5;"/><text fill="#000000" font-family="sans-serif" font-size="13" lengthAdjust="spacing" textLength="349.375" x="968.5088" y="365.2271">Publishes the built version to the target environment.</text><text fill="#000000" font-family="sans-serif" font-size="13" lengthAdjust="spacing" textLength="302.5103" x="968.5088" y="380.3599">Triggered automatically after successful build.</text><text fill="#000000" font-family="sans-serif" font-size="13" lengthAdjust="spacing" textLength="209.5996" x="968.5088" y="395.4927">Note: Can also be run manually.</text><rect fill="#F1F1F1" height="33.9688" rx="12.5" ry="12.5" style="stroke:#181818;stroke-width:0.5;" width="163.5605" x="778.9482" y="358.875"/><text fill="#000000" font-family="sans-serif" font-size="12" lengthAdjust="spacing" textLength="143.5605" x="788.9482" y="380.0137">Deploy Web Application</text><path d="M1006.1992,438.5586 L1006.1992,462.2578 L986.1992,466.2578 L1006.1992,470.2578 L1006.1992,493.957 A0,0 0 0 0 1006.1992,493.957 L1339.8594,493.957 A0,0 0 0 0 1339.8594,493.957 L1339.8594,448.5586 L1329.8594,438.5586 L1006.1992,438.5586 A0,0 0 0 0 1006.1992,438.5586" fill="#FEFFDD" style="stroke:#181818;stroke-width:0.5;"/><path d="M1329.8594,438.5586 L1329.8594,448.5586 L1339.8594,448.5586 L1329.8594,438.5586" fill="#FEFFDD" style="stroke:#181818;stroke-width:0.5;"/><text fill="#000000" font-family="sans-serif" font-size="13" lengthAdjust="spacing" textLength="287.7646" x="1012.1992" y="455.6255">Validate functionality of the live application.</text><text fill="#000000" font-family="sans-serif" font-size="13" lengthAdjust="spacing" textLength="276.8911" x="1012.1992" y="470.7583">Triggered automatically after deployment.</text><text fill="#000000" font-family="sans-serif" font-size="13" lengthAdjust="spacing" textLength="312.6602" x="1012.1992" y="485.8911">Note: Can also be launched manually if needed.</text><rect fill="#F1F1F1" height="33.9688" rx="12.5" ry="12.5" style="stroke:#181818;stroke-width:0.5;" width="250.9414" x="735.2578" y="449.2734"/><text fill="#000000" font-family="sans-serif" font-size="12" lengthAdjust="spacing" textLength="230.9414" x="745.2578" y="470.4121">System Tests on Deployed Application</text><polygon fill="#F1F1F1" points="774.8313,520.4609,946.6257,520.4609,958.6257,532.4609,946.6257,544.4609,774.8313,544.4609,762.8313,532.4609,774.8313,520.4609" style="stroke:#181818;stroke-width:0.5;"/><text fill="#000000" font-family="sans-serif" font-size="11" lengthAdjust="spacing" textLength="171.7944" x="774.8313" y="536.269">Post-deployment tests passed?</text><text fill="#000000" font-family="sans-serif" font-size="11" lengthAdjust="spacing" textLength="19.2178" x="743.6135" y="529.8667">Yes</text><text fill="#000000" font-family="sans-serif" font-size="11" lengthAdjust="spacing" textLength="14.9585" x="958.6257" y="529.8667">No</text><rect fill="#F1F1F1" height="33.9688" rx="12.5" ry="12.5" style="stroke:#181818;stroke-width:0.5;" width="276.8809" x="573.1064" y="554.4609"/><text fill="#000000" font-family="sans-serif" font-size="12" lengthAdjust="spacing" textLength="256.8809" x="583.1064" y="575.5996">Process complete — deployment validated</text><rect fill="#F1F1F1" height="33.9688" rx="12.5" ry="12.5" style="stroke:#181818;stroke-width:0.5;" width="279.8457" x="869.9873" y="554.4609"/><text fill="#000000" font-family="sans-serif" font-size="12" lengthAdjust="spacing" textLength="259.8457" x="879.9873" y="575.5996">Fix issues and rerun post-deployment tests</text><polygon fill="#F1F1F1" points="860.7285,594.4297,872.7285,606.4297,860.7285,618.4297,848.7285,606.4297,860.7285,594.4297" style="stroke:#181818;stroke-width:0.5;"/><rect fill="#F1F1F1" height="33.9688" rx="12.5" ry="12.5" style="stroke:#181818;stroke-width:0.5;" width="169.5137" x="1359.8594" y="348.1602"/><text fill="#000000" font-family="sans-serif" font-size="12" lengthAdjust="spacing" textLength="149.5137" x="1369.8594" y="369.2988">Fix build errors and retry</text><polygon fill="#F1F1F1" points="1152.6724,624.4297,1164.6724,636.4297,1152.6724,648.4297,1140.6724,636.4297,1152.6724,624.4297" style="stroke:#181818;stroke-width:0.5;"/><rect fill="#F1F1F1" height="33.9688" rx="12.5" ry="12.5" style="stroke:#181818;stroke-width:0.5;" width="236.1289" x="1729.6772" y="246.6953"/><text fill="#000000" font-family="sans-serif" font-size="12" lengthAdjust="spacing" textLength="216.1289" x="1739.6772" y="267.834">End of pipeline for non-main branch</text><polygon fill="#F1F1F1" points="1500.207,654.4297,1512.207,666.4297,1500.207,678.4297,1488.207,666.4297,1500.207,654.4297" style="stroke:#181818;stroke-width:0.5;"/><rect fill="#F1F1F1" height="33.9688" rx="12.5" ry="12.5" style="stroke:#181818;stroke-width:0.5;" width="214.9531" x="1995.8062" y="212.6953"/><text fill="#000000" font-family="sans-serif" font-size="12" lengthAdjust="spacing" textLength="194.9531" x="2005.8062" y="233.834">Fix system test issues and rerun</text><polygon fill="#F1F1F1" points="1801.7449,684.4297,1813.7449,696.4297,1801.7449,708.4297,1789.7449,696.4297,1801.7449,684.4297" style="stroke:#181818;stroke-width:0.5;"/><rect fill="#555555" height="6" rx="2.5" ry="2.5" style="stroke:#555555;stroke-width:1;" width="2217.7639" x="11" y="728.4297"/><ellipse cx="1087.8796" cy="765.4297" fill="none" rx="11" ry="11" style="stroke:#222222;stroke-width:1;"/><ellipse cx="1087.8796" cy="765.4297" fill="#222222" rx="6" ry="6" style="stroke:#222222;stroke-width:1;"/><line style="stroke:#181818;stroke-width:1;" x1="103.7969" x2="84.7412" y1="414.4922" y2="414.4922"/><line style="stroke:#181818;stroke-width:1;" x1="84.7412" x2="84.7412" y1="414.4922" y2="436.4922"/><polygon fill="#181818" points="80.7412,426.4922,84.7412,436.4922,88.7412,426.4922,84.7412,430.4922" style="stroke:#181818;stroke-width:1;"/><line style="stroke:#181818;stroke-width:1;" x1="270.2813" x2="289.3369" y1="414.4922" y2="414.4922"/><line style="stroke:#181818;stroke-width:1;" x1="289.3369" x2="289.3369" y1="414.4922" y2="436.4922"/><polygon fill="#181818" points="285.3369,426.4922,289.3369,436.4922,293.3369,426.4922,289.3369,430.4922" style="stroke:#181818;stroke-width:1;"/><line style="stroke:#181818;stroke-width:1;" x1="84.7412" x2="84.7412" y1="470.4609" y2="488.4609"/><line style="stroke:#181818;stroke-width:1;" x1="84.7412" x2="175.0391" y1="488.4609" y2="488.4609"/><polygon fill="#181818" points="165.0391,484.4609,175.0391,488.4609,165.0391,492.4609,169.0391,488.4609" style="stroke:#181818;stroke-width:1;"/><line style="stroke:#181818;stroke-width:1;" x1="289.3369" x2="289.3369" y1="470.4609" y2="488.4609"/><line style="stroke:#181818;stroke-width:1;" x1="289.3369" x2="199.0391" y1="488.4609" y2="488.4609"/><polygon fill="#181818" points="209.0391,484.4609,199.0391,488.4609,209.0391,492.4609,205.0391,488.4609" style="stroke:#181818;stroke-width:1;"/><line style="stroke:#181818;stroke-width:1;" x1="187.0391" x2="187.0391" y1="349.2109" y2="402.4922"/><polygon fill="#181818" points="183.0391,392.4922,187.0391,402.4922,191.0391,392.4922,187.0391,396.4922" style="stroke:#181818;stroke-width:1;"/><line style="stroke:#181818;stroke-width:1;" x1="860.7285" x2="860.7285" y1="392.8438" y2="449.2734"/><polygon fill="#181818" points="856.7285,439.2734,860.7285,449.2734,864.7285,439.2734,860.7285,443.2734" style="stroke:#181818;stroke-width:1;"/><line style="stroke:#181818;stroke-width:1;" x1="762.8313" x2="711.5469" y1="532.4609" y2="532.4609"/><line style="stroke:#181818;stroke-width:1;" x1="711.5469" x2="711.5469" y1="532.4609" y2="554.4609"/><polygon fill="#181818" points="707.5469,544.4609,711.5469,554.4609,715.5469,544.4609,711.5469,548.4609" style="stroke:#181818;stroke-width:1;"/><line style="stroke:#181818;stroke-width:1;" x1="958.6257" x2="1009.9102" y1="532.4609" y2="532.4609"/><line style="stroke:#181818;stroke-width:1;" x1="1009.9102" x2="1009.9102" y1="532.4609" y2="554.4609"/><polygon fill="#181818" points="1005.9102,544.4609,1009.9102,554.4609,1013.9102,544.4609,1009.9102,548.4609" style="stroke:#181818;stroke-width:1;"/><line style="stroke:#181818;stroke-width:1;" x1="711.5469" x2="711.5469" y1="588.4297" y2="606.4297"/><line style="stroke:#181818;stroke-width:1;" x1="711.5469" x2="848.7285" y1="606.4297" y2="606.4297"/><polygon fill="#181818" points="838.7285,602.4297,848.7285,606.4297,838.7285,610.4297,842.7285,606.4297" style="stroke:#181818;stroke-width:1;"/><line style="stroke:#181818;stroke-width:1;" x1="1009.9102" x2="1009.9102" y1="588.4297" y2="606.4297"/><line style="stroke:#181818;stroke-width:1;" x1="1009.9102" x2="872.7285" y1="606.4297" y2="606.4297"/><polygon fill="#181818" points="882.7285,602.4297,872.7285,606.4297,882.7285,610.4297,878.7285,606.4297" style="stroke:#181818;stroke-width:1;"/><line style="stroke:#181818;stroke-width:1;" x1="860.7285" x2="860.7285" y1="483.2422" y2="520.4609"/><polygon fill="#181818" points="856.7285,510.4609,860.7285,520.4609,864.7285,510.4609,860.7285,514.4609" style="stroke:#181818;stroke-width:1;"/><line style="stroke:#181818;stroke-width:1;" x1="1092.6655" x2="860.7285" y1="326.1602" y2="326.1602"/><line style="stroke:#181818;stroke-width:1;" x1="860.7285" x2="860.7285" y1="326.1602" y2="358.875"/><polygon fill="#181818" points="856.7285,348.875,860.7285,358.875,864.7285,348.875,860.7285,352.875" style="stroke:#181818;stroke-width:1;"/><line style="stroke:#181818;stroke-width:1;" x1="1212.6792" x2="1444.6162" y1="326.1602" y2="326.1602"/><line style="stroke:#181818;stroke-width:1;" x1="1444.6162" x2="1444.6162" y1="326.1602" y2="348.1602"/><polygon fill="#181818" points="1440.6162,338.1602,1444.6162,348.1602,1448.6162,338.1602,1444.6162,342.1602" style="stroke:#181818;stroke-width:1;"/><line style="stroke:#181818;stroke-width:1;" x1="860.7285" x2="860.7285" y1="618.4297" y2="636.4297"/><line style="stroke:#181818;stroke-width:1;" x1="860.7285" x2="1140.6724" y1="636.4297" y2="636.4297"/><polygon fill="#181818" points="1130.6724,632.4297,1140.6724,636.4297,1130.6724,640.4297,1134.6724,636.4297" style="stroke:#181818;stroke-width:1;"/><line style="stroke:#181818;stroke-width:1;" x1="1444.6162" x2="1444.6162" y1="382.1289" y2="636.4297"/><line style="stroke:#181818;stroke-width:1;" x1="1444.6162" x2="1164.6724" y1="636.4297" y2="636.4297"/><polygon fill="#181818" points="1174.6724,632.4297,1164.6724,636.4297,1174.6724,640.4297,1170.6724,636.4297" style="stroke:#181818;stroke-width:1;"/><line style="stroke:#181818;stroke-width:1;" x1="1152.6724" x2="1152.6724" y1="283.8125" y2="314.1602"/><polygon fill="#181818" points="1148.6724,304.1602,1152.6724,314.1602,1156.6724,304.1602,1152.6724,308.1602" style="stroke:#181818;stroke-width:1;"/><line style="stroke:#181818;stroke-width:1;" x1="1451.2915" x2="1152.6724" y1="224.6953" y2="224.6953"/><line style="stroke:#181818;stroke-width:1;" x1="1152.6724" x2="1152.6724" y1="224.6953" y2="249.8438"/><polygon fill="#181818" points="1148.6724,239.8438,1152.6724,249.8438,1156.6724,239.8438,1152.6724,243.8438" style="stroke:#181818;stroke-width:1;"/><line style="stroke:#181818;stroke-width:1;" x1="1549.1226" x2="1847.7417" y1="224.6953" y2="224.6953"/><line style="stroke:#181818;stroke-width:1;" x1="1847.7417" x2="1847.7417" y1="224.6953" y2="246.6953"/><polygon fill="#181818" points="1843.7417,236.6953,1847.7417,246.6953,1851.7417,236.6953,1847.7417,240.6953" style="stroke:#181818;stroke-width:1;"/><line style="stroke:#181818;stroke-width:1;" x1="1152.6724" x2="1152.6724" y1="648.4297" y2="666.4297"/><line style="stroke:#181818;stroke-width:1;" x1="1152.6724" x2="1488.207" y1="666.4297" y2="666.4297"/><polygon fill="#181818" points="1478.207,662.4297,1488.207,666.4297,1478.207,670.4297,1482.207,666.4297" style="stroke:#181818;stroke-width:1;"/><line style="stroke:#181818;stroke-width:1;" x1="1847.7417" x2="1847.7417" y1="280.6641" y2="666.4297"/><line style="stroke:#181818;stroke-width:1;" x1="1847.7417" x2="1512.207" y1="666.4297" y2="666.4297"/><polygon fill="#181818" points="1522.207,662.4297,1512.207,666.4297,1522.207,670.4297,1518.207,666.4297" style="stroke:#181818;stroke-width:1;"/><line style="stroke:#181818;stroke-width:1;" x1="1729.9243" x2="1500.207" y1="190.6953" y2="190.6953"/><line style="stroke:#181818;stroke-width:1;" x1="1500.207" x2="1500.207" y1="190.6953" y2="212.6953"/><polygon fill="#181818" points="1496.207,202.6953,1500.207,212.6953,1504.207,202.6953,1500.207,206.6953" style="stroke:#181818;stroke-width:1;"/><line style="stroke:#181818;stroke-width:1;" x1="1873.5654" x2="2103.2827" y1="190.6953" y2="190.6953"/><line style="stroke:#181818;stroke-width:1;" x1="2103.2827" x2="2103.2827" y1="190.6953" y2="212.6953"/><polygon fill="#181818" points="2099.2827,202.6953,2103.2827,212.6953,2107.2827,202.6953,2103.2827,206.6953" style="stroke:#181818;stroke-width:1;"/><line style="stroke:#181818;stroke-width:1;" x1="1500.207" x2="1500.207" y1="678.4297" y2="696.4297"/><line style="stroke:#181818;stroke-width:1;" x1="1500.207" x2="1789.7449" y1="696.4297" y2="696.4297"/><polygon fill="#181818" points="1779.7449,692.4297,1789.7449,696.4297,1779.7449,700.4297,1783.7449,696.4297" style="stroke:#181818;stroke-width:1;"/><line style="stroke:#181818;stroke-width:1;" x1="2103.2827" x2="2103.2827" y1="246.6641" y2="696.4297"/><line style="stroke:#181818;stroke-width:1;" x1="2103.2827" x2="1813.7449" y1="696.4297" y2="696.4297"/><polygon fill="#181818" points="1823.7449,692.4297,1813.7449,696.4297,1823.7449,700.4297,1819.7449,696.4297" style="stroke:#181818;stroke-width:1;"/><line style="stroke:#181818;stroke-width:1;" x1="1801.7449" x2="1801.7449" y1="147.9805" y2="178.6953"/><polygon fill="#181818" points="1797.7449,168.6953,1801.7449,178.6953,1805.7449,168.6953,1801.7449,172.6953" style="stroke:#181818;stroke-width:1;"/><line style="stroke:#181818;stroke-width:1;" x1="187.0391" x2="187.0391" y1="93.2969" y2="315.2422"/><polygon fill="#181818" points="183.0391,305.2422,187.0391,315.2422,191.0391,305.2422,187.0391,309.2422" style="stroke:#181818;stroke-width:1;"/><line style="stroke:#181818;stroke-width:1;" x1="1801.7449" x2="1801.7449" y1="93.2969" y2="114.0117"/><polygon fill="#181818" points="1797.7449,104.0117,1801.7449,114.0117,1805.7449,104.0117,1801.7449,108.0117" style="stroke:#181818;stroke-width:1;"/><line style="stroke:#181818;stroke-width:1;" x1="187.0391" x2="187.0391" y1="500.4609" y2="728.4297"/><polygon fill="#181818" points="183.0391,718.4297,187.0391,728.4297,191.0391,718.4297,187.0391,722.4297" style="stroke:#181818;stroke-width:1;"/><line style="stroke:#181818;stroke-width:1;" x1="1801.7449" x2="1801.7449" y1="708.4297" y2="728.4297"/><polygon fill="#181818" points="1797.7449,718.4297,1801.7449,728.4297,1805.7449,718.4297,1801.7449,722.4297" style="stroke:#181818;stroke-width:1;"/><line style="stroke:#181818;stroke-width:1;" x1="1087.8796" x2="1087.8796" y1="67.2969" y2="87.2969"/><polygon fill="#181818" points="1083.8796,77.2969,1087.8796,87.2969,1091.8796,77.2969,1087.8796,81.2969" style="stroke:#181818;stroke-width:1;"/><line style="stroke:#181818;stroke-width:1;" x1="1087.8796" x2="1087.8796" y1="734.4297" y2="754.4297"/><polygon fill="#181818" points="1083.8796,744.4297,1087.8796,754.4297,1091.8796,744.4297,1087.8796,748.4297" style="stroke:#181818;stroke-width:1;"/><!--SRC=[hPKxSjim48PxdM9Bkx3IIqKcbkEC2tiqYIUPb12v5341iHmygB3B8NB2d2Ix82MA4kMe20izo7tytmzW6NGm2AkdTwi7M3lAq7lOwL32lLCsA-5PMRN52csOpNnGZhyASZzc08iLLJLPVWAlw8DVyZrB0S7fRHduprTqkcX1srmtEe_AG7R8AABDWYQhZ0xjd8DVEMkB3dDGCL2bWiwKCIsG1Vw6JLA3Na9VkCa2LagUU88DTumMAcMZP4Z4aysnHlwGJeuge52YWnqBBmpjKXL-dEJE-BSku6QW2K83jV8Uy_UtmAaMRhwZl-L8nlwCFXeEQ5XxhWBc0ex68zoyK1_pg7-2zZwY1yLz78h2RDnXsOdGHJ8Kr5PfAxP-QNt0glDKyB_X1ZxKjM53nB5pctiTG0qwyKeDmMnEgHfDxhzRV6fVh_fjxoJmcJ7xNkS1Z7yVjScdeEKQWSlr2Ir3SrUf1BMZF6OTk9IPzr6NoJlyQj04gWYyLNpCv2WKqNH8-qh7s7kYJd7Am7mAEt4zO6selGGsWGQmZXkZVTd32L40NcClV87IJJwHMmmigz6Eh1pJ-I7z4lKPuSYhQnP_sek9lTj1iu9haG-RUJGWW8f4QtI3nzlxMjOyoHYxSqvfL9G3a1zGPNLjMjEte6KBhCc7kw7BFuv1RzP-tCfSCCZCVtxzFf8w7Z1zzz6OwUjC3fjwIj7o68C7pwMYgMJQ5O3EaTiN3gvTpauBdAOlFd8iBrYjQpJQybAIOylitT4fwwhiQqmCJp-CapEsON3AOgIt4R-QgFuB]--></g></svg>